# xmcd CD database file
#
# Track frame offsets:
#	150
#	21960
#	39377
#	57150
#	77529
#	92777
#	114325
#	137937
#	152152
#	176592
#	198752
#	217735
#
# Disc length: 3024 seconds
#
# Revision: 1
# Processed by: cddbd v1.4PL0 Copyright (c) Steve Scherf et al.
# Submitted via: CDex 1.50
#
DISCID=940bce0c
DTITLE=Povl Dissing - Zoo Sange
DYEAR=1900
DGENRE=Blues
TTITLE0=Okapiens Nytårssang
TTITLE1=Træskonæbbet
TTITLE2=Pelikanen og Gibbonaben
TTITLE3=Åh,  At Være En Stork
TTITLE4=Zebrastriber
TTITLE5=Drontens Sang Til Mennesket
TTITLE6=Digteren og Næsehornet Brutalis
TTITLE7=Elskovssang For Orangutanger
TTITLE8=Blues For Bison
TTITLE9=Mørkezoo
TTITLE10=Månen
TTITLE11=Vuggevise For Næsehorn
EXTD=
EXTT0=
EXTT1=
EXTT2=
EXTT3=
EXTT4=
EXTT5=
EXTT6=
EXTT7=
EXTT8=
EXTT9=
EXTT10=
EXTT11=
PLAYORDER=
